<svg width="28" height="26" viewBox="0 0 28 26" fill="none" xmlns="http://www.w3.org/2000/svg">
<path d="M19.5165 2.37543C20.9783 2.37963 22.3791 2.9407 23.4127 3.93609C24.4464 4.93149 25.0291 6.28033 25.0334 7.68802V18.3121C25.0291 19.7198 24.4464 21.0686 23.4127 22.064C22.3791 23.0594 20.9783 23.6205 19.5165 23.6247H8.48384C7.022 23.6205 5.62128 23.0594 4.5876 22.064C3.55393 21.0686 2.97128 19.7198 2.96691 18.3121V7.68802C2.97128 6.28033 3.55393 4.93149 4.5876 3.93609C5.62128 2.9407 7.022 2.37963 8.48384 2.37543H19.5165V2.37543ZM19.5165 0.250732H8.48384C4.23591 0.250732 0.760498 3.59743 0.760498 7.68802V18.3121C0.760498 22.4027 4.23591 25.7494 8.48384 25.7494H19.5165C23.7644 25.7494 27.2398 22.4027 27.2398 18.3121V7.68802C27.2398 3.59743 23.7644 0.250732 19.5165 0.250732V0.250732Z" fill="white"/>
<path d="M21.1713 7.68806C20.8439 7.68806 20.524 7.5946 20.2518 7.41948C19.9797 7.24437 19.7675 6.99547 19.6423 6.70427C19.517 6.41306 19.4842 6.09263 19.5481 5.78349C19.612 5.47435 19.7696 5.19038 20.001 4.96751C20.2325 4.74463 20.5274 4.59285 20.8484 4.53135C21.1694 4.46986 21.5022 4.50142 21.8046 4.62204C22.107 4.74266 22.3654 4.94693 22.5473 5.20901C22.7291 5.47108 22.8262 5.7792 22.8262 6.0944C22.8267 6.30381 22.7842 6.51124 22.7012 6.7048C22.6182 6.89835 22.4963 7.07422 22.3425 7.22229C22.1888 7.37037 22.0061 7.48774 21.8051 7.56767C21.6041 7.6476 21.3887 7.68851 21.1713 7.68806V7.68806ZM14 8.75013C14.8729 8.75013 15.7261 8.99938 16.4519 9.46637C17.1777 9.93336 17.7434 10.5971 18.0774 11.3737C18.4115 12.1503 18.4989 13.0048 18.3286 13.8292C18.1583 14.6536 17.7379 15.4109 17.1207 16.0053C16.5035 16.5996 15.7171 17.0044 14.861 17.1684C14.0049 17.3324 13.1175 17.2482 12.311 16.9265C11.5046 16.6049 10.8153 16.0601 10.3303 15.3612C9.84539 14.6623 9.58654 13.8406 9.58654 13.0001C9.5878 11.8733 10.0532 10.793 10.8806 9.99624C11.708 9.19948 12.8298 8.75133 14 8.75013V8.75013ZM14 6.62543C12.6907 6.62543 11.4108 6.9993 10.3222 7.69975C9.23356 8.40021 8.38507 9.39579 7.88403 10.5606C7.383 11.7254 7.2519 13.0072 7.50733 14.2437C7.76276 15.4803 8.39323 16.6161 9.31903 17.5076C10.2448 18.3992 11.4244 19.0063 12.7085 19.2523C13.9926 19.4982 15.3236 19.372 16.5333 18.8895C17.7429 18.407 18.7768 17.59 19.5042 16.5417C20.2316 15.4933 20.6198 14.2609 20.6198 13.0001C20.6198 11.3094 19.9224 9.688 18.6809 8.49252C17.4394 7.29704 15.7557 6.62543 14 6.62543V6.62543Z" fill="white"/>
</svg>
