<svg width="50" height="50" viewBox="0 0 50 50" fill="none" xmlns="http://www.w3.org/2000/svg">
<rect width="50" height="50" rx="25" fill="#40DDB6"/>
<path d="M30.5165 14.3754C31.9783 14.3796 33.3791 14.9407 34.4127 15.9361C35.4464 16.9315 36.0291 18.2803 36.0334 19.688V30.3121C36.0291 31.7198 35.4464 33.0686 34.4127 34.064C33.3791 35.0594 31.9783 35.6205 30.5165 35.6247H19.4838C18.022 35.6205 16.6213 35.0594 15.5876 34.064C14.5539 33.0686 13.9713 31.7198 13.9669 30.3121V19.688C13.9713 18.2803 14.5539 16.9315 15.5876 15.9361C16.6213 14.9407 18.022 14.3796 19.4838 14.3754H30.5165V14.3754ZM30.5165 12.2507H19.4838C15.2359 12.2507 11.7605 15.5974 11.7605 19.688V30.3121C11.7605 34.4027 15.2359 37.7494 19.4838 37.7494H30.5165C34.7644 37.7494 38.2398 34.4027 38.2398 30.3121V19.688C38.2398 15.5974 34.7644 12.2507 30.5165 12.2507V12.2507Z" fill="white"/>
<path d="M32.1713 19.6881C31.8439 19.6881 31.524 19.5946 31.2518 19.4195C30.9797 19.2444 30.7675 18.9955 30.6423 18.7043C30.517 18.4131 30.4842 18.0926 30.5481 17.7835C30.612 17.4743 30.7696 17.1904 31.001 16.9675C31.2325 16.7446 31.5274 16.5928 31.8484 16.5314C32.1694 16.4699 32.5022 16.5014 32.8046 16.622C33.107 16.7427 33.3654 16.9469 33.5473 17.209C33.7291 17.4711 33.8262 17.7792 33.8262 18.0944C33.8267 18.3038 33.7842 18.5112 33.7012 18.7048C33.6182 18.8984 33.4963 19.0742 33.3425 19.2223C33.1888 19.3704 33.0061 19.4877 32.8051 19.5677C32.6041 19.6476 32.3887 19.6885 32.1713 19.6881V19.6881ZM25 20.7501C25.8729 20.7501 26.7261 20.9994 27.4519 21.4664C28.1777 21.9334 28.7434 22.5971 29.0774 23.3737C29.4115 24.1503 29.4989 25.0048 29.3286 25.8292C29.1583 26.6536 28.7379 27.4109 28.1207 28.0053C27.5035 28.5996 26.7171 29.0044 25.861 29.1684C25.0049 29.3324 24.1175 29.2482 23.311 28.9265C22.5046 28.6049 21.8153 28.0601 21.3303 27.3612C20.8454 26.6623 20.5865 25.8406 20.5865 25.0001C20.5878 23.8733 21.0532 22.793 21.8806 21.9962C22.708 21.1995 23.8298 20.7513 25 20.7501V20.7501ZM25 18.6254C23.6907 18.6254 22.4108 18.9993 21.3222 19.6998C20.2336 20.4002 19.3851 21.3958 18.884 22.5606C18.383 23.7254 18.2519 25.0072 18.5073 26.2437C18.7628 27.4803 19.3932 28.6161 20.319 29.5076C21.2448 30.3992 22.4244 31.0063 23.7085 31.2523C24.9926 31.4982 26.3236 31.372 27.5333 30.8895C28.7429 30.407 29.7768 29.59 30.5042 28.5417C31.2316 27.4933 31.6198 26.2609 31.6198 25.0001C31.6198 23.3094 30.9224 21.688 29.6809 20.4925C28.4394 19.297 26.7557 18.6254 25 18.6254V18.6254Z" fill="white"/>
</svg>
